<svg id="Layer_1" viewBox="0 0 512 512" xmlns="http://www.w3.org/2000/svg" data-name="Layer 1"><path d="m484.28 415.39v64.48a6.39 6.39 0 0 1 -6.39 6.39h-179.17a6.39 6.39 0 0 1 -6.38-6.39v-64.48a53.5 53.5 0 0 1 53.36-53.39h85.21a53.5 53.5 0 0 1 53.37 53.39z" fill-rule="evenodd"/><path d="m342.81 323.43h-64.25v81.72a6.37 6.37 0 0 1 -9.33 6l-166.33-87.72h-42.68c-23.44 0-44.22-17.69-44.22-41v-215.74c0-23.27 20.78-40.95 44.22-40.95h391.56c23.44 0 44.22 17.68 44.22 41v215.73c0 23.27-20.78 41-44.22 41h-18c-13.62 32.05-55.58 40.47-80.43 15.62a49.61 49.61 0 0 1 -10.54-15.66z" fill-rule="evenodd"/><circle cx="388.31" cy="304.11" fill="#4e8de0" r="36.64"/><g fill-rule="evenodd"><path d="m437.29 310.65h14.49c16.52 0 31.44-11.95 31.44-28.18v-215.78c0-16.22-14.92-28.17-31.44-28.17h-391.56c-16.52 0-31.44 11.95-31.44 28.17v215.78c0 16.23 14.92 28.18 31.44 28.18h44.23a6.42 6.42 0 0 1 3.36 1l158 83.36v-78.01a6.37 6.37 0 0 1 6.37-6.37h67.13a49.41 49.41 0 1 1 98 0zm-62.29-262.32a98.17 98.17 0 1 1 -98.17 98.16 98.16 98.16 0 0 1 98.17-98.16zm-192.31 19.41a6.39 6.39 0 0 1 11.31-4.09 14.68 14.68 0 0 0 10.9 4.49q7.86 0 18.89-6c15.88-8.62 33-12 45.42 1.22a6.42 6.42 0 0 1 1.73 4.37v43.14a6.38 6.38 0 0 1 -11.3 4.13 14.67 14.67 0 0 0 -10.89-4.49q-7.86 0-18.9 6c-11.61 6.31-23.7 9.77-34.39 6.08v44.94l89.43 116.86a6.4 6.4 0 0 1 -5.07 10.24h-223.94a6.38 6.38 0 0 1 -4.8-10.6l58.71-76.72a6.4 6.4 0 0 1 10.2.1l16.09 21 46.61-60.91z" fill="#e6e9ee"/><path d="m189.08 180.12-47.87 62.54a6.39 6.39 0 0 1 -10.2.09l-16.16-21.11-46.06 60.19h198.12z" fill="#24809d"/><path d="m195.46 79.41v28.72c7.69 6.1 18.79 2.33 28.31-2.84 11.61-6.3 23.7-9.76 34.39-6.07v-28.73c-7.69-6.1-18.78-2.33-28.31 2.84-11.61 6.3-23.7 9.77-34.39 6.08z" fill="#ef6262"/><path d="m435.37 86.11a85.39 85.39 0 1 0 0 120.76 85.4 85.4 0 0 0 0-120.76zm-46.22-12.92 15.24 22.36 27.37 2a6.38 6.38 0 0 1 3.24 11.61l-7 5.28a61.95 61.95 0 1 1 -51.76-29.88l1.1-8.86a6.4 6.4 0 0 1 11.81-2.51z" fill="#3177db"/><path d="m395.59 105.28-7.66-11.28-4.75 38.28 30.82-23.22-13.57-1a6.39 6.39 0 0 1 -4.84-2.78z" fill="#ffc250"/><path d="m387.84 144.78-9 6.8a6.4 6.4 0 0 1 -10.17-5.86l1.33-11.21a13 13 0 0 0 -4.22 21.14c8.69 8.65 23.61 1.54 22.06-10.87z" fill="#ef6262"/><path d="m417.75 122.18-19 14.38a25.73 25.73 0 0 1 -23.75 35.67c-22.85 0-34.37-27.76-18.2-43.93a25.71 25.71 0 0 1 14.92-7.3l2.93-23.64a49.18 49.18 0 0 0 .34 98.35c33.79 0 57.23-33.25 46.65-64.83a48.14 48.14 0 0 0 -3.89-8.7z" fill="#699ee5"/><path d="m429.44 473.48v-45.37a6.39 6.39 0 0 1 12.78 0v45.37h29.28v-58.09a40.73 40.73 0 0 0 -40.59-40.59h-85.21a40.73 40.73 0 0 0 -40.59 40.59v58.09h29.29v-45.37a6.39 6.39 0 1 1 12.77 0v45.37z" fill="#4e8de0"/></g></svg>