<svg id="&#x421;&#x43B;&#x43E;&#x439;_1" viewBox="0 0 3500 3500" xmlns="http://www.w3.org/2000/svg"><g id="Icon_Online_Delivery" data-name="Icon Online Delivery"><path d="m1523.57 2817.81-70 431.5-574.79.69c-19.87-289.25 42-798.57 79.49-860.39s472.52-494.61 472.52-494.61" fill="#fff"/><g stroke="#424242" stroke-linecap="round" stroke-linejoin="round" stroke-width="61.64"><path d="m2143 1315.6v88.4h-883.63v-88.4a88.63 88.63 0 0 1 88.37-88.37h706.92a88.63 88.63 0 0 1 88.34 88.37z" fill="#d6dcee"/><path d="m1259.37 1403.97h883.65v1024.11h-883.65z" fill="#61cfff"/><path d="m2143 2428.08v303.12c0 47.63-39.77 86.61-88.37 86.61h-706.89c-48.6 0-88.37-39-88.37-86.61v-303.12z" fill="#d6dcee"/><path d="m1657.02 2596.9h132.54" fill="#fff"/><path d="m862.92 373.29v226.03l143.84 102.73" fill="none"/><path d="m1105.6 839.2a339.94 339.94 0 0 1 -74.17 56.93c-163.02 92.8-370.43 35.87-463.17-127.13s-35.87-370.39 127.15-463.18 372.56-32 465.35 131" fill="none" stroke-dasharray="863.01 123.29 6164.38"/><path d="m976.73 370.55 184.16 66.97-56.91-187.52" fill="none"/><circle cx="862.92" cy="605.06" fill="#fff" r="51.37"/><path d="m629.75 354.17h-254.34" fill="none" stroke-dasharray="1500 123.29 123.29 123.29 6164.38"/><path d="m722 908.14h-151.6" fill="none" stroke-dasharray="1500 123.29 123.29 123.29 6164.38"/><path d="m528.73 656.43h-254.34" fill="none" stroke-dasharray="1500 123.29 123.29 123.29 6164.38"/><path d="m250 781.32h327" fill="none" stroke-dasharray="0 123.29 10273.97 0"/><path d="m1676.62 537.67h-226.29" fill="none" stroke-dasharray="1500 123.29 123.29 123.29 6164.38"/><path d="m1676.62 763.7h-226.29" fill="none" stroke-dasharray="1500 123.29 123.29 123.29 6164.38"/><path d="m1611.96 640.41h-290.94" fill="none" stroke-dasharray="0 123.29 10273.97 0"/><path d="m2676.22 617.1v191.39a42.33 42.33 0 0 1 -42.22 42.51h-819.63a42.33 42.33 0 0 1 -42.25-42.52v-199.17c0-143.23 0-259.6 120.4-259.6h557.48a42 42 0 0 1 32.76 15.67l23.72 29.36 10.83 13.43 97.3 120.58 54.07 67a34.35 34.35 0 0 1 7.54 21.35z" fill="#ffcc4d" stroke-dasharray="2732.88 123.29 10273.97 0"/><circle cx="1969.05" cy="851.01" fill="#96725c" r="89.52" stroke-dasharray="4109.59 123.29 10273.97 0"/><circle cx="2478.21" cy="851.01" fill="#96725c" r="89.52" stroke-dasharray="4109.59 123.29 10273.97 0"/><path d="m2982.88 1688.36c-102.14 0-184.21 79.15-184.93 178.42s184.93 376.37 184.93 376.37 184.21-274.44 184.93-373.71-82.19-181.08-184.93-181.08zm-.52 252.4c-37-.27-66.76-29.63-66.5-65.58s30.45-64.88 67.44-64.61 66.76 29.63 66.5 65.58-30.46 64.85-67.45 64.6z" fill="#61cfff"/><path d="m394.55 1195.21c-56.74-.41-103.06 44-103.46 99.12s101.23 209.09 101.23 209.09 103.85-152.42 104.25-207.61-45.28-100.19-102.02-100.6z" fill="#61cfff"/><path d="m391.15 1667.8 41.09.02" fill="none"/><path d="m542.06 1667.87 201.15.09a123.29 123.29 0 0 1 123.23 123.29v61.49a123.29 123.29 0 0 0 123.29 123.26h27.27" fill="none" stroke-dasharray="73.21 109.82"/><path d="m1071.92 1976.03h41.09" fill="none"/><path d="m2982.02 2428.08h-41.09" fill="none"/><path d="m2812.79 2428.08h-158.68a123.29 123.29 0 0 1 -123.29-123.29v-205.47a123.29 123.29 0 0 0 -123.29-123.32h-38.67" fill="none" stroke-dasharray="85.42 128.14"/><path d="m2304.79 1976.03h-41.09" fill="none"/><circle cx="390.29" cy="1668.02" fill="#ff5757" r="61.64" transform="matrix(.007 -1 1 .007 -1280.49 2046.29)"/><circle cx="2982.88" cy="2428.08" fill="#ff5757" r="61.64" transform="matrix(.007 -1 1 .007 533.38 5393.4)"/><path d="m393.81 1297.95 20.55.14" fill="#61cfff" stroke-dasharray="0 82.19"/><path d="m2103.19 250c-56.74-.41-103.06 44-103.46 99.12s101.27 209.09 101.27 209.09 103.84-152.46 104.24-207.61-45.31-100.19-102.05-100.6z" fill="#61cfff"/><path d="m2102.45 352.74 20.55.15" fill="#61cfff" stroke-dasharray="0 82.19"/><path d="m3111.44 2916.83v164.38" fill="none" stroke-dasharray="20.55 123.29"/><path d="m3193.63 2999.02h-164.39" fill="none" stroke-dasharray="20.55 123.29"/><path d="m431.39 2900.69v164.38" fill="none" stroke-dasharray="20.55 123.29"/><path d="m513.58 2982.88h-164.38" fill="none" stroke-dasharray="20.55 123.29"/><path d="m577 2356.16v164.39" fill="none" stroke-dasharray="20.55 123.29"/><path d="m659.2 2438.36h-164.39" fill="none" stroke-dasharray="20.55 123.29"/><path d="m2622.86 1267.12v164.39" fill="none" stroke-dasharray="20.55 123.29"/><path d="m2705.05 1349.31h-164.38" fill="none" stroke-dasharray="20.55 123.29"/><path d="m1042.18 2544.17s133.48-187.68 258.84-231.84 193.81-114.82 235.76-114.82 99.36 192.1-53 346.66l-152.35 154.56s48.58 200.93-42 300.29" fill="#fff" stroke-dasharray="965.75 123.29 6164.38"/><circle cx="1688.36" cy="1751.18" fill="#ffcc4d" r="267.12" stroke-dasharray="739.73 123.29 6164.38"/><path d="m1640.33 1911.1h69.1" fill="none" stroke-dasharray="0 123.29"/><path d="m1755.71 1911.1h69.11" fill="none" stroke-dasharray="0 123.29"/><path d="m1784.12 1819.84h-165.18l-41.1-134.77h247.37z" fill="none"/><path d="m1577.84 1685.07-18.33-61.72h-90.21" fill="none"/><path d="m2686.4 3250c1.53-68.53-3.31-169.34-3.31-291.18 0-156.56-183.31-164.9-222.82-82.84-32.71-119.35-163.55-133.45-228-62.4-45.15-92.37-181.5-97.49-231.24-12.35l-16-612.4c1.67-110.13-14-209.78-125.15-209.78-121.76 0-137.71 114.47-137.21 192.48 1 86.06-1 805 4.84 1078.46" fill="#fff"/><path d="m2332.27 356.94v241.35h336.43" fill="none" stroke-dasharray="369.86 123.29 10273.97 0"/><path d="m2859.59 575.83h196.67v-96.87l193.74 161.45-193.74 161.45v-96.87h-196.67" fill="#ff5757"/><path d="m1674.88 1022.71h1134.55" fill="none" stroke-dasharray="0 123.29 123.29 123.29 349.32"/><path d="m1934.4 601.45h-162.28" fill="none" stroke-dasharray="369.86 123.29 10273.97 0"/><path d="m878.78 3250c-19.87-289.25 42-798.57 79.49-860.39s472.52-494.61 472.52-494.61" fill="none" stroke-dasharray="965.75 123.29 6164.38"/><path d="m1523.57 2817.81-70 431.5" fill="none" stroke-dasharray="965.75 123.29 6164.38"/></g></g></svg>